# xmcd
#
# Track frame offsets:
#	150
#	18825
#	37045
#	59025
#	74780
#	96190
#	116462
#	136370
#	158500
#	179102
#	197367
#	217535
#
# Disc length: 3211 seconds
#
# Revision: 0
# Processed by: cddbd v1.5PL3 Copyright (c) Steve Scherf et al.
# Submitted via: dBpowerAMP V4.0
#
DISCID=a80c890c
DTITLE=Tonjua Hawkins - Trust
DYEAR=1900
DGENRE=Blues
TTITLE0=You can lean on me
TTITLE1=Love in the huose
TTITLE2=I`ll be there
TTITLE3=Go crazy
TTITLE4=Helpless
TTITLE5=I will always dream
TTITLE6=Trust
TTITLE7=I`ll carry you
TTITLE8=I will love you
TTITLE9=The sweeter the love
TTITLE10=Gently softly I cry
TTITLE11=Let it go
EXTD=
EXTT0=
EXTT1=
EXTT2=
EXTT3=
EXTT4=
EXTT5=
EXTT6=
EXTT7=
EXTT8=
EXTT9=
EXTT10=
EXTT11=
PLAYORDER=
